<svg id="Livello_1" data-name="Livello 1" xmlns="http://www.w3.org/2000/svg" viewBox="0 0 55 55">
  <title>icona_switch</title>
  <g>
    <path d="M27.5,55A27.5,27.5,0,1,0,0,27.5,27.5,27.5,0,0,0,27.5,55ZM5.38,32.2c0-2.85,2.74-5.06,6.8-6.57V16a4.6,4.6,0,0,1,4.59-4.6h3.17a4.11,4.11,0,0,1,.68-1,4,4,0,0,1,2.87-1.22h8a4,4,0,0,1,2.92,1.28,4.18,4.18,0,0,1,.63.9h3.17A4.6,4.6,0,0,1,42.82,16v9.64c4.06,1.51,6.8,3.72,6.8,6.57,0,4.8-7.76,7.77-16.5,8.67V38.06c8.6-.89,13.69-3.73,13.69-5.86,0-1.13-1.4-2.44-4-3.57v.06a4.6,4.6,0,0,1-4.59,4.6H16.77a4.6,4.6,0,0,1-4.59-4.6v-.06c-2.59,1.13-4,2.45-4,3.57,0,2.1,4.93,4.88,13.3,5.82v-1.5a.34.34,0,0,1,.17-.29l.22-.12.39-.22a.35.35,0,0,1,.33,0l5.14,3.24a.33.33,0,0,1,.15.27v.68a.33.33,0,0,1-.15.27L23.55,43l-.95.59a.26.26,0,0,1-.17,0,.32.32,0,0,1-.16,0l-.61-.34a.32.32,0,0,1-.17-.28V40.83C12.91,39.89,5.38,36.93,5.38,32.2Z" style="fill: #fff"/>
    <path d="M16.77,30.82H38.23a2.13,2.13,0,0,0,2.12-2.13V16a2.13,2.13,0,0,0-2.12-2.13H32.87a1.51,1.51,0,0,0-.25-1.69,1.53,1.53,0,0,0-1.12-.49h-8a1.52,1.52,0,0,0-1.36,2.18H16.77A2.13,2.13,0,0,0,14.65,16v12.7A2.13,2.13,0,0,0,16.77,30.82ZM27.5,14.22a7.6,7.6,0,1,1-7.6,7.6A7.61,7.61,0,0,1,27.5,14.22Z" style="fill: #fff"/>
    <path d="M27.5,27a5.13,5.13,0,1,0-5.13-5.13A5.13,5.13,0,0,0,27.5,27Zm.82-9.18a.83.83,0,1,1,0,1.65,2.69,2.69,0,0,0-1,.2,2.77,2.77,0,0,0-1.59,1.59,2.69,2.69,0,0,0-.2,1,.83.83,0,1,1-1.65,0A4.46,4.46,0,0,1,28.32,17.77Z" style="fill: #fff"/>
  </g>
</svg>
