<?xml version="1.0" encoding="utf-8"?>
<!-- Generator: Adobe Illustrator 22.0.1, SVG Export Plug-In . SVG Version: 6.00 Build 0)  -->
<svg version="1.1" id="Layer_1" xmlns="http://www.w3.org/2000/svg" xmlns:xlink="http://www.w3.org/1999/xlink" x="0px" y="0px"
	 viewBox="0 0 571.6 97" style="enable-background:new 0 0 571.6 97;" xml:space="preserve">
<style type="text/css">
	.st0{fill:#FF911A;}
	.st1{fill:none;}
	.st2{fill:#FFFFFF;}
</style>
<g>
	<path class="st0" d="M0,11.7c0-4.6,3.7-8.3,8.3-8.3h1.8c3.5,0,6,1.8,7.5,4.3l20,32.6L57.8,7.6c1.7-2.8,4.1-4.2,7.4-4.2H67
		c4.6,0,8.3,3.7,8.3,8.3v59.8c0,4.6-3.7,8.3-8.3,8.3c-4.5,0-8.2-3.8-8.2-8.3V34L44.3,56.4c-1.7,2.6-3.9,4.2-6.9,4.2
		s-5.2-1.6-6.9-4.2l-14.3-22v37.4c0,4.5-3.7,8.1-8.2,8.1s-8.1-3.6-8.1-8.1V11.7H0z"/>
	<path class="st1" d="M88.8,50.7v-0.2c0-16.6,13.3-30,31.3-30c17.9,0,31.1,13.2,31.1,29.8v0.2c0,16.6-13.3,30-31.3,30
		C102.1,80.5,88.8,67.2,88.8,50.7z M135.1,50.7v-0.2c0-8.5-6.1-15.9-15.2-15.9c-9.4,0-15,7.2-15,15.7v0.2c0,8.5,6.1,15.9,15.2,15.9
		C129.5,66.4,135.1,59.2,135.1,50.7z"/>
	<path class="st0" d="M163,29c0-4.5,3.7-8.2,8.2-8.2s8.2,3.7,8.2,8.2v2.6c2.4-5.6,6.2-10.8,11.1-10.8c5.1,0,8,3.3,8,8
		c0,4.3-2.8,6.9-6.1,7.6c-8.3,1.9-12.9,8.3-12.9,19.9v15.3c0,4.5-3.7,8.2-8.2,8.2s-8.2-3.7-8.2-8.2V29H163z"/>
	<path class="st0" d="M208,29c0-4.5,3.7-8.2,8.2-8.2s8.2,3.7,8.2,8.2v0.8c4-5.4,9.5-9.4,18-9.4c13.4,0,26.2,10.5,26.2,29.8v0.2
		c0,19.3-12.6,29.8-26.2,29.8c-8.7,0-14.1-4-18-8.6v17.2c0,4.5-3.7,8.2-8.2,8.2s-8.2-3.7-8.2-8.2L208,29L208,29z M252.2,50.4v-0.2
		c0-9.6-6.5-15.9-14.1-15.9s-14,6.3-14,15.9v0.2c0,9.6,6.3,15.9,14,15.9S252.2,60.1,252.2,50.4z"/>
	<path class="st0" d="M280.6,8.2c0-4.5,3.7-8.2,8.2-8.2s8.2,3.7,8.2,8.2v21.5c3.8-4.8,8.6-9.3,16.9-9.3c12.4,0,19.6,8.2,19.6,21.4
		v29.8c0,4.5-3.7,8.2-8.2,8.2s-8.2-3.7-8.2-8.2V47c0-7.7-3.7-11.7-9.9-11.7S297,39.3,297,47v24.6c0,4.5-3.7,8.2-8.2,8.2
		s-8.2-3.7-8.2-8.2L280.6,8.2L280.6,8.2z"/>
	<path class="st2" d="M348.1,41.7v-0.2c0-21.3,15.9-38.9,37.6-38.9c12.5,0,20.3,4.3,27.6,10.5c0.5,0.5,1.1,1.3,1.1,2.3
		c0,1.5-1.4,2.8-2.9,2.8c-0.8,0-1.5-0.3-1.9-0.8c-6.2-5.7-13.4-9.8-24-9.8c-18.1,0-31.7,14.7-31.7,33.7v0.2
		c0,19,13.9,33.9,31.8,33.9c10.2,0,17.4-3.7,24.5-10.4c0.4-0.4,1.1-0.9,1.9-0.9c1.4,0,2.7,1.3,2.7,2.7c0,0.9-0.4,1.5-0.9,1.9
		c-7.6,7.1-15.9,11.7-28.5,11.7C364.1,80.5,348.1,63.3,348.1,41.7z"/>
	<path class="st2" d="M425.1,63.2V63c0-11.4,9.8-17.9,24-17.9c7.6,0,12.9,1,18.2,2.4v-2.4c0-11.1-6.8-16.8-18.1-16.8
		c-6,0-11.1,1.5-15.6,3.7c-0.4,0.2-0.9,0.3-1.2,0.3c-1.3,0-2.5-1.2-2.5-2.5s1-2.2,1.5-2.4c5.6-2.5,11.1-4.1,18.1-4.1
		c7.4,0,13.3,2,17.3,6c3.7,3.7,5.6,8.7,5.6,15.5v31.9c0,1.6-1.1,2.7-2.6,2.7s-2.6-1.1-2.6-2.7V70c-3.8,5.3-10.5,10.4-21,10.4
		C436.1,80.5,425.1,74.6,425.1,63.2z M467.4,58.6v-6.2c-4.6-1.2-10.8-2.5-18.6-2.5c-11.6,0-18.1,5.2-18.1,12.8v0.2
		c0,8,7.5,12.6,15.9,12.6C457.8,75.5,467.4,68.6,467.4,58.6z"/>
	<path class="st2" d="M487.8,73.1c-0.4-0.3-1-1.2-1-2c0-1.4,1.2-2.6,2.6-2.6c0.6,0,1.3,0.2,1.7,0.5c5.7,4.1,11.7,6.2,18.3,6.2
		c7.4,0,13.2-4.1,13.2-10.4v-0.2c0-6.5-6.9-8.8-14.5-11c-8.9-2.6-18.8-5.3-18.8-15.1v-0.2c0-8.8,7.4-15.2,18.1-15.2
		c5.9,0,12.5,1.9,17.7,4.9c0.6,0.4,1.4,1.2,1.4,2.4c0,1.4-1.2,2.6-2.6,2.6c-0.6,0-1.2-0.2-1.5-0.4c-4.7-2.8-10-4.5-15.3-4.5
		c-7.5,0-12.5,4.1-12.5,9.6V38c0,6.1,7.4,8.4,15.3,10.6c8.8,2.5,18.1,5.7,18.1,15.4v0.2c0,9.8-8.4,16-18.9,16
		C501.7,80.2,493.4,77.3,487.8,73.1z"/>
	<path class="st2" d="M546.7,65.1v-36h-5.9c-1.3,0-2.5-1.2-2.5-2.5s1.2-2.4,2.5-2.4h5.9V9c0-1.5,1.1-2.7,2.6-2.7S552,7.5,552,9v15.3
		h17.2c1.3,0,2.5,1.2,2.5,2.5s-1.2,2.4-2.5,2.4H552v35.4c0,7.9,4.6,10.6,11,10.6c3.8,0,5.5-1.1,6.2-1.1c1.2,0,2.4,1.1,2.4,2.4
		c0,1.1-0.6,1.8-1.7,2.3c-2.2,0.8-4.6,1.4-7.7,1.4C553.6,80.1,546.7,75.5,546.7,65.1z"/>
</g>
<path class="st0" d="M92.2,27.8c-3.5,10.3-8.3,53.2,6.2,53.9c29.9,1.6,55.3-23.5,54.5-31.4c-1-9.5-31.8-34-48.4-34.7
	C95,15.1,94.6,20.8,92.2,27.8z M115.8,68.4c-10,0-18.1-8.1-18.1-18.1s8.1-18.1,18.1-18.1s18.1,8.1,18.1,18.1
	C133.9,60.3,125.8,68.4,115.8,68.4z"/>
<circle class="st2" cx="115.8" cy="50.3" r="18.1"/>
<circle cx="120.1" cy="44.3" r="4.2"/>
</svg>
